<?xml version="1.0" encoding="UTF-8" standalone="no"?>
<!DOCTYPE svg PUBLIC "-//W3C//DTD SVG 1.1//EN" "http://www.w3.org/Graphics/SVG/1.1/DTD/svg11.dtd">
<svg width="100%" height="100%" viewBox="0 0 830 380" version="1.1" xmlns="http://www.w3.org/2000/svg" xmlns:xlink="http://www.w3.org/1999/xlink" xml:space="preserve" xmlns:serif="http://www.serif.com/" style="fill-rule:evenodd;clip-rule:evenodd;stroke-linecap:round;stroke-linejoin:round;stroke-miterlimit:1.5;">
    <g>
        <g transform="matrix(1.36082,0,0,1.3472,6.75285,-365.764)">
            <g>
                <g transform="matrix(1,0,0,1.13153,2.84217e-14,276.469)">
                    <path d="M600,3.508C600,1.572 598.239,0 596.071,0L3.929,0C1.761,0 0,1.572 0,3.508L0,236.986C0,238.921 1.761,240.493 3.929,240.493L596.071,240.493C598.239,240.493 600,238.921 600,236.986L600,3.508Z" style="fill:rgb(77,77,77);"/>
                </g>
                <g>
                    <clipPath id="_clip1">
                        <path d="M600,280.438C600,278.247 598.239,276.469 596.071,276.469L3.929,276.469C1.761,276.469 0,278.247 0,280.438L0,544.626C0,546.816 1.761,548.595 3.929,548.595L596.071,548.595C598.239,548.595 600,546.816 600,544.626L600,280.438Z"/>
                    </clipPath>
                    <g clip-path="url(#_clip1)">
                        <g transform="matrix(1,0,0,1,0,-58)">
                            <path d="M91.261,318.503L600,575.23L514.084,638.955L244.281,637.007L-0,478.242L0,349.794L91.261,318.503Z" style="fill:rgb(157,152,134);"/>
                        </g>
                        <g transform="matrix(1,0,0,1,0,-58)">
                            <path d="M248.511,478.729C248.511,478.729 320.555,438.817 343.344,486.267C366.133,533.717 335.111,543.34 398.431,569.909" style="fill:none;stroke:rgb(85,85,85);stroke-width:6.28px;"/>
                        </g>
                        <g transform="matrix(1.58661,0.350878,-0.350878,1.58661,69.5116,-393.524)">
                            <path d="M233.801,400.321L150.73,387.06L150.996,453.807L233.801,478.242L233.801,400.321Z" style="fill:rgb(89,125,166);stroke:rgb(78,78,78);stroke-width:3.87px;"/>
                        </g>
                        <g transform="matrix(1.34276,0.29695,-0.29695,1.34276,91.8768,-279.21)">
                            <path d="M233.801,400.321L150.73,387.06L150.996,453.807L233.801,478.242L233.801,400.321Z" style="fill:rgb(226,226,226);"/>
                        </g>
                        <g transform="matrix(1,0,0,1,0,-58)">
                            <clipPath id="_clip2">
                                <path d="M286.94,385.752L179.334,343.278L159.869,432.982L263.802,490.382L286.94,385.752Z"/>
                            </clipPath>
                            <g clip-path="url(#_clip2)">
                                <g transform="matrix(1.34276,0.29695,-0.29695,1.34276,91.8768,-221.21)">
                                    <path d="M233.801,400.321L150.73,387.06L150.744,390.649L233.801,404.851L233.801,400.321Z" style="fill:rgb(200,200,200);"/>
                                </g>
                                <g transform="matrix(0.734849,-0,-0,0.742279,-4.96232,329.499)">
                                    <path d="M365.388,104.192L368.223,105.127L365.774,106.834C366.338,106.077 366.145,104.756 365.388,104.192Z"/>
                                    <path d="M339.001,111.73C339.001,111.73 348.869,109.228 353.74,107.838C357.184,106.856 362.999,105.907 366.109,105.436" style="fill:none;stroke:black;stroke-width:0.4px;"/>
                                </g>
                                <g transform="matrix(0.378287,0.925688,-0.925688,0.378287,529.672,50.664)">
                                    <g transform="matrix(0.277984,-0.680241,0.687119,0.280794,55.8691,600.384)">
                                        <path d="M357.299,165.521L358.087,168.4L355.311,167.302C356.253,167.354 357.247,166.463 357.299,165.521Z"/>
                                        <path d="M333.686,139.021C333.686,139.021 339.758,147.118 342.9,151.056C345.376,154.159 353.378,163.14 356.661,166.809" style="fill:none;stroke:black;stroke-width:0.4px;"/>
                                    </g>
                                </g>
                                <g transform="matrix(0.734849,-0,-0,0.742279,-4.96232,329.499)">
                                    <path d="M295.699,97.434L296.217,100.374L293.554,99.025C294.488,99.163 295.56,98.368 295.699,97.434Z"/>
                                    <path d="M265.663,70.997C265.663,70.997 264.75,82.107 278.381,87.603C287.929,91.452 292.852,96.174 294.944,98.658" style="fill:none;stroke:black;stroke-width:0.4px;"/>
                                </g>
                                <g>
                                    <g transform="matrix(0.900118,0.435645,-0.435645,0.900118,167.993,-70.9063)">
                                        <ellipse cx="201.865" cy="396.259" rx="16.152" ry="7.086" style="fill:rgb(228,228,228);stroke:black;stroke-width:0.3px;"/>
                                    </g>
                                    <g transform="matrix(0.894903,0.446261,-0.446261,0.894903,179.232,-59.9615)">
                                        <path d="M198.453,388.093C198.288,387.384 197.894,386.846 197.206,386.846L184.529,386.846C183.841,386.846 183.282,387.405 183.282,388.093L183.824,390.1C184.12,390.959 184.383,391.348 185.072,391.348L197.749,391.348C198.437,391.348 198.996,390.789 198.996,390.1L198.453,388.093Z" style="fill:rgb(177,177,177);"/>
                                    </g>
                                </g>
                                <g transform="matrix(0.734849,-0,-0,0.742279,-4.96232,329.499)">
                                    <path d="M291.893,117.191L294.859,117.521L292.815,119.696C293.211,118.839 292.75,117.586 291.893,117.191Z"/>
                                    <path d="M254.26,108.312C254.26,108.312 266.162,111.027 272.282,112.915C277.187,114.429 283.737,120.992 292.855,118.259" style="fill:none;stroke:black;stroke-width:0.4px;"/>
                                </g>
                                <g transform="matrix(1,0,0,1,5.11952,-2.06498)">
                                    <path d="M187.592,388.535L186.103,397.326L202.851,405.547L204.539,396.689L187.592,388.535Z" style="fill:rgb(230,230,230);stroke:black;stroke-width:0.3px;"/>
                                    <g transform="matrix(0.894903,0.446261,-0.446261,0.894903,197.38,-36.8124)">
                                        <path d="M198.453,388.093C198.288,387.384 197.894,386.846 197.206,386.846L184.529,386.846C183.841,386.846 183.282,387.405 183.282,388.093L183.824,390.1C184.12,390.959 184.383,391.348 185.072,391.348L197.749,391.348C198.437,391.348 198.996,390.789 198.996,390.1L198.453,388.093Z" style="fill:rgb(177,177,177);"/>
                                    </g>
                                </g>
                                <g transform="matrix(1,0,0,1,-0.233169,16.7913)">
                                    <path d="M187.592,388.535L186.103,397.326L202.851,405.547L204.539,396.689L187.592,388.535Z" style="fill:rgb(230,230,230);stroke:black;stroke-width:0.3px;"/>
                                    <g transform="matrix(0.894903,0.446261,-0.446261,0.894903,197.38,-36.8124)">
                                        <path d="M198.453,388.093C198.288,387.384 197.894,386.846 197.206,386.846L184.529,386.846C183.841,386.846 183.282,387.405 183.282,388.093L183.824,390.1C184.12,390.959 184.383,391.348 185.072,391.348L197.749,391.348C198.437,391.348 198.996,390.789 198.996,390.1L198.453,388.093Z" style="fill:rgb(177,177,177);"/>
                                    </g>
                                </g>
                                <g transform="matrix(1,0,0,1,57.5847,12.8408)">
                                    <path d="M187.592,388.535L186.103,397.326L202.851,405.547L204.539,396.689L187.592,388.535Z" style="fill:rgb(230,230,230);stroke:black;stroke-width:0.3px;"/>
                                    <g transform="matrix(0.894903,0.446261,-0.446261,0.894903,197.38,-36.8124)">
                                        <path d="M198.453,388.093C198.288,387.384 197.894,386.846 197.206,386.846L184.529,386.846C183.841,386.846 183.282,387.405 183.282,388.093L183.824,390.1C184.12,390.959 184.383,391.348 185.072,391.348L197.749,391.348C198.437,391.348 198.996,390.789 198.996,390.1L198.453,388.093Z" style="fill:rgb(177,177,177);"/>
                                    </g>
                                </g>
                                <g transform="matrix(1,0,0,1,51.2018,47.6892)">
                                    <path d="M187.592,388.535L186.103,397.326L202.851,405.547L204.539,396.689L187.592,388.535Z" style="fill:rgb(230,230,230);stroke:black;stroke-width:0.3px;"/>
                                    <g transform="matrix(0.894903,0.446261,-0.446261,0.894903,197.38,-36.8124)">
                                        <path d="M198.453,388.093C198.288,387.384 197.894,386.846 197.206,386.846L184.529,386.846C183.841,386.846 183.282,387.405 183.282,388.093L183.824,390.1C184.12,390.959 184.383,391.348 185.072,391.348L197.749,391.348C198.437,391.348 198.996,390.789 198.996,390.1L198.453,388.093Z" style="fill:rgb(177,177,177);"/>
                                    </g>
                                </g>
                                <g transform="matrix(1,0,0,1,-14.2805,-6.21564)">
                                    <g transform="matrix(0.900118,0.435645,-0.435645,0.900118,174.186,-29.5129)">
                                        <ellipse cx="201.865" cy="396.259" rx="16.152" ry="7.086" style="fill:rgb(228,228,228);stroke:black;stroke-width:0.3px;"/>
                                    </g>
                                    <g transform="matrix(0.894903,0.446261,-0.446261,0.894903,185.425,-18.5681)">
                                        <path d="M198.453,388.093C198.288,387.384 197.894,386.846 197.206,386.846L184.529,386.846C183.841,386.846 183.282,387.405 183.282,388.093L183.824,390.1C184.12,390.959 184.383,391.348 185.072,391.348L197.749,391.348C198.437,391.348 198.996,390.789 198.996,390.1L198.453,388.093Z" style="fill:rgb(177,177,177);"/>
                                    </g>
                                </g>
                                <g transform="matrix(1,0,0,1,12.6002,2.18846)">
                                    <g transform="matrix(0.900118,0.435645,-0.435645,0.900118,253.867,-40.9895)">
                                        <ellipse cx="201.865" cy="396.259" rx="16.152" ry="7.086" style="fill:rgb(228,228,228);stroke:black;stroke-width:0.3px;"/>
                                    </g>
                                    <g transform="matrix(0.894903,0.446261,-0.446261,0.894903,265.106,-30.0447)">
                                        <path d="M198.453,388.093C198.288,387.384 197.894,386.846 197.206,386.846L184.529,386.846C183.841,386.846 183.282,387.405 183.282,388.093L183.824,390.1C184.12,390.959 184.383,391.348 185.072,391.348L197.749,391.348C198.437,391.348 198.996,390.789 198.996,390.1L198.453,388.093Z" style="fill:rgb(177,177,177);"/>
                                    </g>
                                </g>
                                <g>
                                    <g transform="matrix(0.900118,0.435645,-0.435645,0.900118,259.067,19.3166)">
                                        <ellipse cx="201.865" cy="396.259" rx="16.152" ry="7.086" style="fill:rgb(228,228,228);stroke:black;stroke-width:0.3px;"/>
                                    </g>
                                    <g transform="matrix(0.894903,0.446261,-0.446261,0.894903,270.307,30.2613)">
                                        <path d="M198.453,388.093C198.288,387.384 197.894,386.846 197.206,386.846L184.529,386.846C183.841,386.846 183.282,387.405 183.282,388.093L183.824,390.1C184.12,390.959 184.383,391.348 185.072,391.348L197.749,391.348C198.437,391.348 198.996,390.789 198.996,390.1L198.453,388.093Z" style="fill:rgb(177,177,177);"/>
                                    </g>
                                </g>
                                <g transform="matrix(1.40456,0.67979,-0.67979,1.40456,217.627,-275.574)">
                                    <ellipse cx="201.865" cy="396.259" rx="16.152" ry="7.086" style="fill:rgb(127,213,255);stroke:black;stroke-width:0.19px;"/>
                                </g>
                                <g transform="matrix(0.680938,0.279065,-0.281079,0.685853,176.701,54.822)">
                                    <g transform="matrix(13,0,0,13,271.684,430.152)">
                                    </g>
                                    <text x="238.448px" y="430.152px" style="font-family:'ArialMT', 'Arial', sans-serif;font-size:13px;fill:rgb(77,77,77);">Lively</text>
                                </g>
                            </g>
                        </g>
                        <g>
                            <g transform="matrix(1,0,0,1,0,-58)">
                                <path d="M59.598,462.452L59.598,468.932L181.665,543.466L276.768,514.027L276.768,507.711L59.598,462.452Z" style="fill:rgb(141,141,141);"/>
                            </g>
                            <g transform="matrix(1,0,0,1,0,-58)">
                                <path d="M59.598,462.452L59.598,468.932L181.665,543.466L276.768,514.027L276.768,507.711L59.598,462.452Z" style="fill:rgb(141,141,141);"/>
                            </g>
                        </g>
                        <g transform="matrix(1.66616,0.363942,-0.143595,0.657394,-56.0876,105.759)">
                            <path d="M233.714,393.818L149.876,329.493L103.645,396.98L182.766,465.441L233.714,393.818Z" style="fill:rgb(217,217,217);"/>
                        </g>
                        <g transform="matrix(1.48784,0.32499,-0.128226,0.587034,-32.0843,140.203)">
                            <path d="M233.714,393.818L149.876,329.493L121.493,369.225L200.614,437.686L233.714,393.818Z" style="fill:rgb(143,143,143);"/>
                        </g>
                        <g transform="matrix(1.48784,0.32499,-0.128226,0.587034,-24.7247,170.491)">
                            <path d="M158.3,366.171L136.394,347.098L120.194,371.346L142.407,390.805L158.3,366.171Z" style="fill:rgb(197,197,197);"/>
                        </g>
                        <g>
                            <g transform="matrix(1,0,0,1,0,-58)">
                                <g>
                                    <path d="M261.129,547.161L261.129,577.086L289.474,595.197L324.931,579.607L324.931,549.4L296.586,535.06L261.129,547.161Z" style="fill:rgb(195,255,195);"/>
                                    <g transform="matrix(1.58752,0.346763,-0.139388,0.638133,81.2064,213.915)">
                                        <path d="M190.592,422.161L171.532,410.047L151.939,439.657L170.451,454.141L190.592,422.161Z" style="fill:rgb(236,255,236);"/>
                                    </g>
                                    <path d="M288.499,562.823L289.474,595.197L261.129,577.086L261.129,547.161L288.499,562.823Z" style="fill:rgb(122,224,122);"/>
                                </g>
                                <g>
                                    <path d="M261.129,547.161L261.129,577.086L289.474,595.197L324.931,579.607L324.931,549.4L296.586,535.06L261.129,547.161Z" style="fill:rgb(195,255,195);"/>
                                    <g transform="matrix(1.58752,0.346763,-0.139388,0.638133,81.2064,213.915)">
                                        <path d="M190.592,422.161L171.532,410.047L151.939,439.657L170.451,454.141L190.592,422.161Z" style="fill:rgb(236,255,236);"/>
                                    </g>
                                    <path d="M288.499,562.823L289.474,595.197L261.129,577.086L261.129,547.161L288.499,562.823Z" style="fill:rgb(122,224,122);"/>
                                </g>
                            </g>
                        </g>
                        <g>
                            <g transform="matrix(1,0,0,1,-0.471971,-58)">
                                <path d="M382.129,595.906L423.121,567.97L478.716,591.841L482.628,598.739L482.022,605.199L429.982,629.197C402.019,622.925 382.264,613.357 382.129,595.906Z"/>
                            </g>
                            <g transform="matrix(1,0,0,1,-0.471971,-58)">
                                <path d="M382.129,595.906L423.121,567.97L478.716,591.841L482.628,598.739L482.022,605.199L429.982,629.197C402.019,622.925 382.264,613.357 382.129,595.906Z"/>
                            </g>
                        </g>
                        <g transform="matrix(3.76299,0,0,3.76299,-1878.35,114.08)">
                            <clipPath id="_clip3">
                                <rect x="529.315" y="39.17" width="115.594" height="88.864"/>
                            </clipPath>
                            <g clip-path="url(#_clip3)">
                                <path d="M603.65,109.899L600.713,112.63C599.464,117.105 608.386,120.974 613.429,121.477L627.259,115.099L627.42,113.383L626.38,111.55L626.101,104.507L624.979,100.443C624.979,100.443 623.874,83.436 633.169,77.549C636.936,75.164 636.482,72.878 636.356,70.972C636.171,68.174 634.554,66.832 633.585,65.972C632.552,65.055 625.716,64.948 621.69,64.956C620.097,64.959 618.48,64.803 618.329,64.994L617.994,63.117C619.116,62.603 622.069,62.102 623.29,58.574C623.918,56.761 623.47,54.277 622.858,51.131C621.274,43 619.094,38.092 618.015,38.317C617.946,38.023 618.016,37.349 618.016,37.349C618.016,37.349 619.494,35.998 620.507,35.282C622.374,33.962 622.116,28.439 621.096,26.14C620.434,24.648 617.92,22.209 616.507,21.918C615.094,21.627 612.06,23.289 612.06,23.289L607.717,24.982C607.915,22.672 607.253,20.698 605.516,19.144C602.905,16.838 599.268,17.016 595.225,18.177C590.993,20.026 588.747,22.644 588.689,25.448L581.292,25.77L579.132,24.172C578.995,22.586 578.585,21.038 577.902,19.526C575.557,18.73 572.776,18.434 569.719,19.205C566.711,19.212 564.481,19.897 563.216,21.624C561.433,24.587 562.703,35.51 562.925,39.051C563.012,40.431 564.55,42.87 564.55,42.87C564.55,42.87 563.991,46.56 564.049,47.516C564.076,47.973 564.893,48.601 564.893,48.601L565.356,54.933C565.356,54.933 564.296,55.022 563.98,55.388C561.987,57.696 564.046,67.734 564.516,67.32L570.32,69.653L570.497,71.21L572.202,74.351L572.489,77.017L574.622,77.77L576.527,76.828L576.375,74.216L575.567,73.496L574.861,71.324L577.496,72.294L578.3,74.646L578.165,76.072L577.306,76.274L577.306,78.422L579.318,79.774L581.489,79.235L581.435,76.259L582.506,74.139L585.295,75.054L589.967,73.091C591.676,71.589 591.133,63.31 589.924,60.991C589.01,59.238 587.327,57.626 587.327,57.626C588.479,57.387 589.399,57.015 589.951,56.434L589.637,53.028L582.867,48.217C582.867,48.217 582.641,46.855 582.457,46.482C582.33,46.225 581.76,45.978 581.76,45.978L581.461,44.084C581.461,44.084 595.99,44.828 599.366,44.649C600.417,44.593 601.72,43.009 601.72,43.009L608.324,40.778L608.787,41.81C608.02,46.093 608.744,50.364 609.195,54.646C609.39,56.494 609.411,58.354 609.329,60.202L607.367,64.592C603.992,67.013 602.368,69.84 602.58,73.093C602.628,75.336 603.524,77.323 605.422,79.009C609.611,80.072 613.95,80.097 618.359,79.626C617.565,81.811 613.92,82.921 611.65,85.849L611.146,95.991C609.148,101.631 603.182,106.164 603.65,109.899Z" style="fill:rgb(227,227,227);stroke:black;stroke-width:0.39px;"/>
                                <path d="M611.146,95.991C615.479,99.059 620.105,99.156 624.99,96.64" style="fill:none;stroke:black;stroke-width:0.39px;"/>
                                <path d="M619.787,64.913C622.842,71.287 622.809,76.376 618.359,79.626" style="fill:none;stroke:black;stroke-width:0.39px;"/>
                                <path d="M608.64,49.564C612.682,46.392 617.115,45.516 621.979,47.161" style="fill:none;stroke:black;stroke-width:0.39px;"/>
                                <path d="M570.32,50.698C570.32,50.698 577.285,53.095 578.824,54.55C579.836,55.507 579.554,59.181 579.554,59.181" style="fill:none;stroke:black;stroke-width:0.39px;"/>
                                <path d="M579.554,59.181C584.028,61.45 584.707,68.198 585.295,75.054" style="fill:none;stroke:black;stroke-width:0.39px;"/>
                                <path d="M603.219,41.247C601.039,37.712 600.6,33.441 602.238,28.29L603.644,28.716L604.719,30.153L605.947,26.613L606.998,26.387L604.719,23.134L601.72,25.77L599.854,24.982L594.058,24.982C588.744,28.805 586.542,36.91 591.835,44.536L599.852,44.531C600.935,43.946 602.052,42.911 603.219,41.247Z" style="fill:rgb(124,124,124);stroke:black;stroke-width:0.39px;"/>
                                <path d="M581.292,25.77C581.292,25.77 580.371,31.786 580.336,33.581C580.316,34.598 581.091,35.523 581.079,36.539C581.066,37.721 580.191,39.412 580.255,40.67C580.316,41.875 581.461,44.084 581.461,44.084" style="fill:none;stroke:black;stroke-width:0.39px;"/>
                                <path d="M564.893,48.601C566.583,50.009 568.484,50.649 570.559,50.653" style="fill:none;stroke:black;stroke-width:0.39px;"/>
                                <path d="M582.999,48.311L570.32,50.698L570.32,56.607L579.554,59.181L587.327,57.626" style="fill:none;stroke:black;stroke-width:0.39px;"/>
                                <path d="M570.32,69.653L582.506,74.139" style="fill:none;stroke:black;stroke-width:0.39px;"/>
                                <path d="M573.833,74.529L575.567,73.496L576.375,74.216L576.527,76.828L574.622,77.77L574.095,77.584L573.833,74.529Z" style="fill:rgb(48,48,48);stroke:black;stroke-width:0.2px;"/>
                                <path d="M607.717,24.982C607.378,27.493 607.154,29.919 607.055,32.249C606.151,33.488 605.425,34.784 604.915,36.149C604.451,39.727 603.21,41.634 601.72,43.009" style="fill:none;stroke:black;stroke-width:0.39px;"/>
                            </g>
                        </g>
                    </g>
                </g>
            </g>
            <g>
                <g transform="matrix(1,0,0,1.13153,2.84217e-14,276.469)">
                    <path d="M600,3.508C600,1.572 598.239,0 596.071,0L3.929,0C1.761,0 0,1.572 0,3.508L0,236.986C0,238.921 1.761,240.493 3.929,240.493L596.071,240.493C598.239,240.493 600,238.921 600,236.986L600,3.508Z" style="fill:rgb(77,77,77);"/>
                </g>
                <g>
                    <clipPath id="_clip4">
                        <path d="M600,280.438C600,278.247 598.239,276.469 596.071,276.469L3.929,276.469C1.761,276.469 0,278.247 0,280.438L0,544.626C0,546.816 1.761,548.595 3.929,548.595L596.071,548.595C598.239,548.595 600,546.816 600,544.626L600,280.438Z"/>
                    </clipPath>
                    <g clip-path="url(#_clip4)">
                        <g transform="matrix(1,0,0,1,0,-58)">
                            <path d="M91.261,318.503L600,575.23L514.084,638.955L244.281,637.007L-0,478.242L0,349.794L91.261,318.503Z" style="fill:rgb(157,152,134);"/>
                        </g>
                        <g transform="matrix(1,0,0,1,0,-58)">
                            <path d="M248.511,478.729C248.511,478.729 320.555,438.817 343.344,486.267C366.133,533.717 335.111,543.34 398.431,569.909" style="fill:none;stroke:rgb(85,85,85);stroke-width:6.28px;"/>
                        </g>
                        <g transform="matrix(1.58661,0.350878,-0.350878,1.58661,69.5116,-393.524)">
                            <path d="M233.801,400.321L150.73,387.06L150.996,453.807L233.801,478.242L233.801,400.321Z" style="fill:rgb(89,125,166);stroke:rgb(78,78,78);stroke-width:3.87px;"/>
                        </g>
                        <g transform="matrix(1.34276,0.29695,-0.29695,1.34276,91.8768,-279.21)">
                            <path d="M233.801,400.321L150.73,387.06L150.996,453.807L233.801,478.242L233.801,400.321Z" style="fill:rgb(226,226,226);"/>
                        </g>
                        <g transform="matrix(1,0,0,1,0,-58)">
                            <clipPath id="_clip5">
                                <path d="M286.94,385.752L179.334,343.278L159.869,432.982L263.802,490.382L286.94,385.752Z"/>
                            </clipPath>
                            <g clip-path="url(#_clip5)">
                                <g transform="matrix(1.34276,0.29695,-0.29695,1.34276,91.8768,-221.21)">
                                    <path d="M233.801,400.321L150.73,387.06L150.744,390.649L233.801,404.851L233.801,400.321Z" style="fill:rgb(200,200,200);"/>
                                </g>
                                <g transform="matrix(0.734849,-0,-0,0.742279,-4.96232,329.499)">
                                    <path d="M365.388,104.192L368.223,105.127L365.774,106.834C366.338,106.077 366.145,104.756 365.388,104.192Z"/>
                                    <path d="M339.001,111.73C339.001,111.73 348.869,109.228 353.74,107.838C357.184,106.856 362.999,105.907 366.109,105.436" style="fill:none;stroke:black;stroke-width:0.4px;"/>
                                </g>
                                <g transform="matrix(0.378287,0.925688,-0.925688,0.378287,529.672,50.664)">
                                    <g transform="matrix(0.277984,-0.680241,0.687119,0.280794,55.8691,600.384)">
                                        <path d="M357.299,165.521L358.087,168.4L355.311,167.302C356.253,167.354 357.247,166.463 357.299,165.521Z"/>
                                        <path d="M333.686,139.021C333.686,139.021 339.758,147.118 342.9,151.056C345.376,154.159 353.378,163.14 356.661,166.809" style="fill:none;stroke:black;stroke-width:0.4px;"/>
                                    </g>
                                </g>
                                <g transform="matrix(0.734849,-0,-0,0.742279,-4.96232,329.499)">
                                    <path d="M295.699,97.434L296.217,100.374L293.554,99.025C294.488,99.163 295.56,98.368 295.699,97.434Z"/>
                                    <path d="M265.663,70.997C265.663,70.997 264.75,82.107 278.381,87.603C287.929,91.452 292.852,96.174 294.944,98.658" style="fill:none;stroke:black;stroke-width:0.4px;"/>
                                </g>
                                <g>
                                    <g transform="matrix(0.900118,0.435645,-0.435645,0.900118,167.993,-70.9063)">
                                        <ellipse cx="201.865" cy="396.259" rx="16.152" ry="7.086" style="fill:rgb(228,228,228);stroke:black;stroke-width:0.3px;"/>
                                    </g>
                                    <g transform="matrix(0.894903,0.446261,-0.446261,0.894903,179.232,-59.9615)">
                                        <path d="M198.453,388.093C198.288,387.384 197.894,386.846 197.206,386.846L184.529,386.846C183.841,386.846 183.282,387.405 183.282,388.093L183.824,390.1C184.12,390.959 184.383,391.348 185.072,391.348L197.749,391.348C198.437,391.348 198.996,390.789 198.996,390.1L198.453,388.093Z" style="fill:rgb(177,177,177);"/>
                                    </g>
                                </g>
                                <g transform="matrix(0.734849,-0,-0,0.742279,-4.96232,329.499)">
                                    <path d="M291.893,117.191L294.859,117.521L292.815,119.696C293.211,118.839 292.75,117.586 291.893,117.191Z"/>
                                    <path d="M254.26,108.312C254.26,108.312 266.162,111.027 272.282,112.915C277.187,114.429 283.737,120.992 292.855,118.259" style="fill:none;stroke:black;stroke-width:0.4px;"/>
                                </g>
                                <g transform="matrix(1,0,0,1,5.11952,-2.06498)">
                                    <path d="M187.592,388.535L186.103,397.326L202.851,405.547L204.539,396.689L187.592,388.535Z" style="fill:rgb(230,230,230);stroke:black;stroke-width:0.3px;"/>
                                    <g transform="matrix(0.894903,0.446261,-0.446261,0.894903,197.38,-36.8124)">
                                        <path d="M198.453,388.093C198.288,387.384 197.894,386.846 197.206,386.846L184.529,386.846C183.841,386.846 183.282,387.405 183.282,388.093L183.824,390.1C184.12,390.959 184.383,391.348 185.072,391.348L197.749,391.348C198.437,391.348 198.996,390.789 198.996,390.1L198.453,388.093Z" style="fill:rgb(177,177,177);"/>
                                    </g>
                                </g>
                                <g transform="matrix(1,0,0,1,-0.233169,16.7913)">
                                    <path d="M187.592,388.535L186.103,397.326L202.851,405.547L204.539,396.689L187.592,388.535Z" style="fill:rgb(230,230,230);stroke:black;stroke-width:0.3px;"/>
                                    <g transform="matrix(0.894903,0.446261,-0.446261,0.894903,197.38,-36.8124)">
                                        <path d="M198.453,388.093C198.288,387.384 197.894,386.846 197.206,386.846L184.529,386.846C183.841,386.846 183.282,387.405 183.282,388.093L183.824,390.1C184.12,390.959 184.383,391.348 185.072,391.348L197.749,391.348C198.437,391.348 198.996,390.789 198.996,390.1L198.453,388.093Z" style="fill:rgb(177,177,177);"/>
                                    </g>
                                </g>
                                <g transform="matrix(1,0,0,1,57.5847,12.8408)">
                                    <path d="M187.592,388.535L186.103,397.326L202.851,405.547L204.539,396.689L187.592,388.535Z" style="fill:rgb(230,230,230);stroke:black;stroke-width:0.3px;"/>
                                    <g transform="matrix(0.894903,0.446261,-0.446261,0.894903,197.38,-36.8124)">
                                        <path d="M198.453,388.093C198.288,387.384 197.894,386.846 197.206,386.846L184.529,386.846C183.841,386.846 183.282,387.405 183.282,388.093L183.824,390.1C184.12,390.959 184.383,391.348 185.072,391.348L197.749,391.348C198.437,391.348 198.996,390.789 198.996,390.1L198.453,388.093Z" style="fill:rgb(177,177,177);"/>
                                    </g>
                                </g>
                                <g transform="matrix(1,0,0,1,51.2018,47.6892)">
                                    <path d="M187.592,388.535L186.103,397.326L202.851,405.547L204.539,396.689L187.592,388.535Z" style="fill:rgb(230,230,230);stroke:black;stroke-width:0.3px;"/>
                                    <g transform="matrix(0.894903,0.446261,-0.446261,0.894903,197.38,-36.8124)">
                                        <path d="M198.453,388.093C198.288,387.384 197.894,386.846 197.206,386.846L184.529,386.846C183.841,386.846 183.282,387.405 183.282,388.093L183.824,390.1C184.12,390.959 184.383,391.348 185.072,391.348L197.749,391.348C198.437,391.348 198.996,390.789 198.996,390.1L198.453,388.093Z" style="fill:rgb(177,177,177);"/>
                                    </g>
                                </g>
                                <g transform="matrix(1,0,0,1,-14.2805,-6.21564)">
                                    <g transform="matrix(0.900118,0.435645,-0.435645,0.900118,174.186,-29.5129)">
                                        <ellipse cx="201.865" cy="396.259" rx="16.152" ry="7.086" style="fill:rgb(228,228,228);stroke:black;stroke-width:0.3px;"/>
                                    </g>
                                    <g transform="matrix(0.894903,0.446261,-0.446261,0.894903,185.425,-18.5681)">
                                        <path d="M198.453,388.093C198.288,387.384 197.894,386.846 197.206,386.846L184.529,386.846C183.841,386.846 183.282,387.405 183.282,388.093L183.824,390.1C184.12,390.959 184.383,391.348 185.072,391.348L197.749,391.348C198.437,391.348 198.996,390.789 198.996,390.1L198.453,388.093Z" style="fill:rgb(177,177,177);"/>
                                    </g>
                                </g>
                                <g transform="matrix(1,0,0,1,12.6002,2.18846)">
                                    <g transform="matrix(0.900118,0.435645,-0.435645,0.900118,253.867,-40.9895)">
                                        <ellipse cx="201.865" cy="396.259" rx="16.152" ry="7.086" style="fill:rgb(228,228,228);stroke:black;stroke-width:0.3px;"/>
                                    </g>
                                    <g transform="matrix(0.894903,0.446261,-0.446261,0.894903,265.106,-30.0447)">
                                        <path d="M198.453,388.093C198.288,387.384 197.894,386.846 197.206,386.846L184.529,386.846C183.841,386.846 183.282,387.405 183.282,388.093L183.824,390.1C184.12,390.959 184.383,391.348 185.072,391.348L197.749,391.348C198.437,391.348 198.996,390.789 198.996,390.1L198.453,388.093Z" style="fill:rgb(177,177,177);"/>
                                    </g>
                                </g>
                                <g>
                                    <g transform="matrix(0.900118,0.435645,-0.435645,0.900118,259.067,19.3166)">
                                        <ellipse cx="201.865" cy="396.259" rx="16.152" ry="7.086" style="fill:rgb(228,228,228);stroke:black;stroke-width:0.3px;"/>
                                    </g>
                                    <g transform="matrix(0.894903,0.446261,-0.446261,0.894903,270.307,30.2613)">
                                        <path d="M198.453,388.093C198.288,387.384 197.894,386.846 197.206,386.846L184.529,386.846C183.841,386.846 183.282,387.405 183.282,388.093L183.824,390.1C184.12,390.959 184.383,391.348 185.072,391.348L197.749,391.348C198.437,391.348 198.996,390.789 198.996,390.1L198.453,388.093Z" style="fill:rgb(177,177,177);"/>
                                    </g>
                                </g>
                                <g transform="matrix(1.40456,0.67979,-0.67979,1.40456,217.627,-275.574)">
                                    <ellipse cx="201.865" cy="396.259" rx="16.152" ry="7.086" style="fill:rgb(127,213,255);stroke:black;stroke-width:0.19px;"/>
                                </g>
                                <g transform="matrix(0.680938,0.279065,-0.281079,0.685853,176.701,54.822)">
                                    <g transform="matrix(13,0,0,13,271.684,430.152)">
                                    </g>
                                    <text x="238.448px" y="430.152px" style="font-family:'ArialMT', 'Arial', sans-serif;font-size:13px;fill:rgb(77,77,77);">Lively</text>
                                </g>
                            </g>
                        </g>
                        <g>
                            <g transform="matrix(1,0,0,1,0,-58)">
                                <path d="M59.598,462.452L59.598,468.932L181.665,543.466L276.768,514.027L276.768,507.711L59.598,462.452Z" style="fill:rgb(141,141,141);"/>
                            </g>
                            <g transform="matrix(1,0,0,1,0,-58)">
                                <path d="M59.598,462.452L59.598,468.932L181.665,543.466L276.768,514.027L276.768,507.711L59.598,462.452Z" style="fill:rgb(141,141,141);"/>
                            </g>
                        </g>
                        <g transform="matrix(1.66616,0.363942,-0.143595,0.657394,-56.0876,105.759)">
                            <path d="M233.714,393.818L149.876,329.493L103.645,396.98L182.766,465.441L233.714,393.818Z" style="fill:rgb(217,217,217);"/>
                        </g>
                        <g transform="matrix(1.48784,0.32499,-0.128226,0.587034,-32.0843,140.203)">
                            <path d="M233.714,393.818L149.876,329.493L121.493,369.225L200.614,437.686L233.714,393.818Z" style="fill:rgb(143,143,143);"/>
                        </g>
                        <g transform="matrix(1.48784,0.32499,-0.128226,0.587034,-24.7247,170.491)">
                            <path d="M158.3,366.171L136.394,347.098L120.194,371.346L142.407,390.805L158.3,366.171Z" style="fill:rgb(197,197,197);"/>
                        </g>
                        <g>
                            <g transform="matrix(1,0,0,1,0,-58)">
                                <g>
                                    <path d="M261.129,547.161L261.129,577.086L289.474,595.197L324.931,579.607L324.931,549.4L296.586,535.06L261.129,547.161Z" style="fill:rgb(195,255,195);"/>
                                    <g transform="matrix(1.58752,0.346763,-0.139388,0.638133,81.2064,213.915)">
                                        <path d="M190.592,422.161L171.532,410.047L151.939,439.657L170.451,454.141L190.592,422.161Z" style="fill:rgb(236,255,236);"/>
                                    </g>
                                    <path d="M288.499,562.823L289.474,595.197L261.129,577.086L261.129,547.161L288.499,562.823Z" style="fill:rgb(122,224,122);"/>
                                </g>
                                <g>
                                    <path d="M261.129,547.161L261.129,577.086L289.474,595.197L324.931,579.607L324.931,549.4L296.586,535.06L261.129,547.161Z" style="fill:rgb(195,255,195);"/>
                                    <g transform="matrix(1.58752,0.346763,-0.139388,0.638133,81.2064,213.915)">
                                        <path d="M190.592,422.161L171.532,410.047L151.939,439.657L170.451,454.141L190.592,422.161Z" style="fill:rgb(236,255,236);"/>
                                    </g>
                                    <path d="M288.499,562.823L289.474,595.197L261.129,577.086L261.129,547.161L288.499,562.823Z" style="fill:rgb(122,224,122);"/>
                                </g>
                            </g>
                        </g>
                        <g>
                            <g transform="matrix(1,0,0,1,-0.471971,-58)">
                                <path d="M382.129,595.906L423.121,567.97L478.716,591.841L482.628,598.739L482.022,605.199L429.982,629.197C402.019,622.925 382.264,613.357 382.129,595.906Z"/>
                            </g>
                            <g transform="matrix(1,0,0,1,-0.471971,-58)">
                                <path d="M382.129,595.906L423.121,567.97L478.716,591.841L482.628,598.739L482.022,605.199L429.982,629.197C402.019,622.925 382.264,613.357 382.129,595.906Z"/>
                            </g>
                        </g>
                        <g transform="matrix(3.76299,0,0,3.76299,-1878.35,114.08)">
                            <clipPath id="_clip6">
                                <rect x="529.315" y="39.17" width="115.594" height="88.864"/>
                            </clipPath>
                            <g clip-path="url(#_clip6)">
                                <path d="M603.65,109.899L600.713,112.63C599.464,117.105 608.386,120.974 613.429,121.477L627.259,115.099L627.42,113.383L626.38,111.55L626.101,104.507L624.979,100.443C624.979,100.443 623.874,83.436 633.169,77.549C636.936,75.164 636.482,72.878 636.356,70.972C636.171,68.174 634.554,66.832 633.585,65.972C632.552,65.055 625.716,64.948 621.69,64.956C620.097,64.959 618.48,64.803 618.329,64.994L617.994,63.117C619.116,62.603 622.069,62.102 623.29,58.574C623.918,56.761 623.47,54.277 622.858,51.131C621.274,43 619.094,38.092 618.015,38.317C617.946,38.023 618.016,37.349 618.016,37.349C618.016,37.349 619.494,35.998 620.507,35.282C622.374,33.962 622.116,28.439 621.096,26.14C620.434,24.648 617.92,22.209 616.507,21.918C615.094,21.627 612.06,23.289 612.06,23.289L607.717,24.982C607.915,22.672 607.253,20.698 605.516,19.144C602.905,16.838 599.268,17.016 595.225,18.177C590.993,20.026 588.747,22.644 588.689,25.448L581.292,25.77L579.132,24.172C578.995,22.586 578.585,21.038 577.902,19.526C575.557,18.73 572.776,18.434 569.719,19.205C566.711,19.212 564.481,19.897 563.216,21.624C561.433,24.587 562.703,35.51 562.925,39.051C563.012,40.431 564.55,42.87 564.55,42.87C564.55,42.87 563.991,46.56 564.049,47.516C564.076,47.973 564.893,48.601 564.893,48.601L565.356,54.933C565.356,54.933 564.296,55.022 563.98,55.388C561.987,57.696 564.046,67.734 564.516,67.32L570.32,69.653L570.497,71.21L572.202,74.351L572.489,77.017L574.622,77.77L576.527,76.828L576.375,74.216L575.567,73.496L574.861,71.324L577.496,72.294L578.3,74.646L578.165,76.072L577.306,76.274L577.306,78.422L579.318,79.774L581.489,79.235L581.435,76.259L582.506,74.139L585.295,75.054L589.967,73.091C591.676,71.589 591.133,63.31 589.924,60.991C589.01,59.238 587.327,57.626 587.327,57.626C588.479,57.387 589.399,57.015 589.951,56.434L589.637,53.028L582.867,48.217C582.867,48.217 582.641,46.855 582.457,46.482C582.33,46.225 581.76,45.978 581.76,45.978L581.461,44.084C581.461,44.084 595.99,44.828 599.366,44.649C600.417,44.593 601.72,43.009 601.72,43.009L608.324,40.778L608.787,41.81C608.02,46.093 608.744,50.364 609.195,54.646C609.39,56.494 609.411,58.354 609.329,60.202L607.367,64.592C603.992,67.013 602.368,69.84 602.58,73.093C602.628,75.336 603.524,77.323 605.422,79.009C609.611,80.072 613.95,80.097 618.359,79.626C617.565,81.811 613.92,82.921 611.65,85.849L611.146,95.991C609.148,101.631 603.182,106.164 603.65,109.899Z" style="fill:rgb(227,227,227);stroke:black;stroke-width:0.39px;"/>
                                <path d="M611.146,95.991C615.479,99.059 620.105,99.156 624.99,96.64" style="fill:none;stroke:black;stroke-width:0.39px;"/>
                                <path d="M619.787,64.913C622.842,71.287 622.809,76.376 618.359,79.626" style="fill:none;stroke:black;stroke-width:0.39px;"/>
                                <path d="M608.64,49.564C612.682,46.392 617.115,45.516 621.979,47.161" style="fill:none;stroke:black;stroke-width:0.39px;"/>
                                <path d="M570.32,50.698C570.32,50.698 577.285,53.095 578.824,54.55C579.836,55.507 579.554,59.181 579.554,59.181" style="fill:none;stroke:black;stroke-width:0.39px;"/>
                                <path d="M579.554,59.181C584.028,61.45 584.707,68.198 585.295,75.054" style="fill:none;stroke:black;stroke-width:0.39px;"/>
                                <path d="M603.219,41.247C601.039,37.712 600.6,33.441 602.238,28.29L603.644,28.716L604.719,30.153L605.947,26.613L606.998,26.387L604.719,23.134L601.72,25.77L599.854,24.982L594.058,24.982C588.744,28.805 586.542,36.91 591.835,44.536L599.852,44.531C600.935,43.946 602.052,42.911 603.219,41.247Z" style="fill:rgb(124,124,124);stroke:black;stroke-width:0.39px;"/>
                                <path d="M581.292,25.77C581.292,25.77 580.371,31.786 580.336,33.581C580.316,34.598 581.091,35.523 581.079,36.539C581.066,37.721 580.191,39.412 580.255,40.67C580.316,41.875 581.461,44.084 581.461,44.084" style="fill:none;stroke:black;stroke-width:0.39px;"/>
                                <path d="M564.893,48.601C566.583,50.009 568.484,50.649 570.559,50.653" style="fill:none;stroke:black;stroke-width:0.39px;"/>
                                <path d="M582.999,48.311L570.32,50.698L570.32,56.607L579.554,59.181L587.327,57.626" style="fill:none;stroke:black;stroke-width:0.39px;"/>
                                <path d="M570.32,69.653L582.506,74.139" style="fill:none;stroke:black;stroke-width:0.39px;"/>
                                <path d="M573.833,74.529L575.567,73.496L576.375,74.216L576.527,76.828L574.622,77.77L574.095,77.584L573.833,74.529Z" style="fill:rgb(48,48,48);stroke:black;stroke-width:0.2px;"/>
                                <path d="M607.717,24.982C607.378,27.493 607.154,29.919 607.055,32.249C606.151,33.488 605.425,34.784 604.915,36.149C604.451,39.727 603.21,41.634 601.72,43.009" style="fill:none;stroke:black;stroke-width:0.39px;"/>
                            </g>
                        </g>
                    </g>
                </g>
            </g>
        </g>
    </g>
</svg>
